<svg xmlns="http://www.w3.org/2000/svg" viewBox="0 0 64 64" role="img" aria-label="BharatYatra AI">
  <defs>
    <linearGradient id="by-bg" x1="0%" y1="0%" x2="100%" y2="100%">
      <stop offset="0%" stop-color="#0F2744"/>
      <stop offset="55%" stop-color="#0D9488"/>
      <stop offset="100%" stop-color="#065F46"/>
    </linearGradient>
    <linearGradient id="by-path" x1="0%" y1="100%" x2="100%" y2="0%">
      <stop offset="0%" stop-color="#FF9933"/>
      <stop offset="50%" stop-color="#FDE68A"/>
      <stop offset="100%" stop-color="#34D399"/>
    </linearGradient>
    <linearGradient id="by-glow" x1="0%" y1="0%" x2="100%" y2="100%">
      <stop offset="0%" stop-color="#38BDF8"/>
      <stop offset="100%" stop-color="#818CF8"/>
    </linearGradient>
    <filter id="by-shadow" x="-20%" y="-20%" width="140%" height="140%">
      <feDropShadow dx="0" dy="2" stdDeviation="2" flood-color="#000" flood-opacity="0.25"/>
    </filter>
  </defs>
  <rect width="64" height="64" rx="16" fill="url(#by-bg)"/>
  <path d="M12 44 C 18 36, 22 40, 28 32 C 34 24, 38 28, 44 20 C 48 15, 50 14, 52 12" fill="none" stroke="url(#by-path)" stroke-width="4.5" stroke-linecap="round" stroke-linejoin="round" filter="url(#by-shadow)"/>
  <circle cx="12" cy="44" r="3.5" fill="#FF9933"/>
  <circle cx="28" cy="32" r="2.5" fill="#FFFFFF" opacity="0.9"/>
  <circle cx="44" cy="20" r="2.5" fill="#A7F3D0"/>
  <g transform="translate(46, 8)">
    <circle cx="6" cy="6" r="7" fill="url(#by-glow)" opacity="0.95"/>
    <path d="M3 6 L5.5 8.5 L9 4" fill="none" stroke="#0F2744" stroke-width="2" stroke-linecap="round" stroke-linejoin="round"/>
    <circle cx="2" cy="2" r="1.2" fill="#E0F2FE"/>
    <circle cx="10" cy="3" r="1" fill="#C4B5FD"/>
    <circle cx="9" cy="10" r="1" fill="#6EE7B7"/>
    <path d="M2 2 L6 6 M10 3 L6 6 M9 10 L6 6" stroke="#0F2744" stroke-width="0.8" opacity="0.5"/>
  </g>
  <path d="M10 52 H54" stroke="#FFFFFF" stroke-width="2.5" stroke-linecap="round" opacity="0.2"/>
  <path d="M10 52 H22" stroke="#FF9933" stroke-width="2.5" stroke-linecap="round"/>
  <path d="M22 52 H36" stroke="#FFFFFF" stroke-width="2.5" stroke-linecap="round" opacity="0.85"/>
  <path d="M36 52 H54" stroke="#138808" stroke-width="2.5" stroke-linecap="round"/>
</svg>
