<?xml version="1.0" encoding="UTF-8"?>
<svg width="800" height="500" viewBox="0 0 800 500" fill="none" xmlns="http://www.w3.org/2000/svg">
  <!-- Background -->
  <rect width="800" height="500" fill="#F3F4F6"/>
  
  <!-- App Window -->
  <rect x="50" y="30" width="700" height="440" rx="8" fill="white" stroke="#E5E7EB"/>
  
  <!-- Header -->
  <rect x="70" y="50" width="660" height="60" rx="4" fill="#F9FAFB"/>
  <text x="90" y="85" font-family="Arial" font-size="18" font-weight="bold" fill="#4F46E5">Day 1 - Delhi Adventure</text>
  <rect x="550" y="65" width="100" height="30" rx="15" fill="#4F46E5"/>
  <text x="570" y="85" font-family="Arial" font-size="14" fill="white">Edit Day</text>
  
  <!-- Timeline -->
  <line x1="120" y1="140" x2="120" y2="420" stroke="#E5E7EB" stroke-width="2"/>
  
  <!-- Activities -->
  <circle cx="120" cy="160" r="6" fill="#4F46E5"/>
  <rect x="140" y="140" width="560" height="60" rx="4" fill="#F9FAFB"/>
  <text x="160" y="165" font-family="Arial" font-size="16" fill="#111827">9:00 AM - Red Fort</text>
  <text x="160" y="185" font-family="Arial" font-size="14" fill="#6B7280">Explore the historic Red Fort complex</text>
  
  <circle cx="120" cy="240" r="6" fill="#4F46E5"/>
  <rect x="140" y="220" width="560" height="60" rx="4" fill="#F9FAFB"/>
  <text x="160" y="245" font-family="Arial" font-size="16" fill="#111827">12:00 PM - Lunch at Karim's</text>
  <text x="160" y="265" font-family="Arial" font-size="14" fill="#6B7280">Traditional Mughlai cuisine</text>
  
  <circle cx="120" cy="320" r="6" fill="#4F46E5"/>
  <rect x="140" y="300" width="560" height="60" rx="4" fill="#F9FAFB"/>
  <text x="160" y="325" font-family="Arial" font-size="16" fill="#111827">2:00 PM - Qutub Minar</text>
  <text x="160" y="345" font-family="Arial" font-size="14" fill="#6B7280">Visit the UNESCO World Heritage site</text>
  
  <!-- Weather Icons -->
  <circle cx="640" cy="160" r="12" fill="#FCD34D"/>
  <circle cx="640" cy="240" r="12" fill="#FCD34D"/>
  <circle cx="640" cy="320" r="12" fill="#60A5FA"/>
</svg> 