<?xml version="1.0" encoding="UTF-8"?>
<svg width="800" height="500" viewBox="0 0 800 500" fill="none" xmlns="http://www.w3.org/2000/svg">
  <!-- Background -->
  <rect width="800" height="500" fill="#F3F4F6"/>
  
  <!-- App Window -->
  <rect x="50" y="30" width="700" height="440" rx="8" fill="white" stroke="#E5E7EB"/>
  
  <!-- Header -->
  <rect x="70" y="50" width="660" height="60" rx="4" fill="#F9FAFB"/>
  <text x="90" y="85" font-family="Arial" font-size="18" font-weight="bold" fill="#4F46E5">Weather Forecast - Delhi</text>
  
  <!-- Weather Overview -->
  <rect x="70" y="130" width="660" height="100" rx="4" fill="#F9FAFB"/>
  
  <!-- Current Weather -->
  <circle cx="130" cy="180" r="25" fill="#FCD34D"/> <!-- Sun -->
  <text x="170" y="170" font-family="Arial" font-size="24" font-weight="bold" fill="#111827">32°C</text>
  <text x="170" y="190" font-family="Arial" font-size="14" fill="#6B7280">Sunny</text>
  
  <!-- Hourly Forecast -->
  <text x="70" y="270" font-family="Arial" font-size="16" font-weight="bold" fill="#111827">Today's Forecast</text>
  
  <!-- Time Slots -->
  <rect x="70" y="290" width="120" height="80" rx="4" fill="#F9FAFB"/>
  <text x="90" y="315" font-family="Arial" font-size="14" fill="#111827">9:00 AM</text>
  <circle cx="130" cy="340" r="15" fill="#FCD34D"/>
  <text x="90" y="365" font-family="Arial" font-size="14" fill="#6B7280">30°C</text>
  
  <rect x="200" y="290" width="120" height="80" rx="4" fill="#F9FAFB"/>
  <text x="220" y="315" font-family="Arial" font-size="14" fill="#111827">12:00 PM</text>
  <circle cx="260" cy="340" r="15" fill="#FCD34D"/>
  <text x="220" y="365" font-family="Arial" font-size="14" fill="#6B7280">32°C</text>
  
  <rect x="330" y="290" width="120" height="80" rx="4" fill="#F9FAFB"/>
  <text x="350" y="315" font-family="Arial" font-size="14" fill="#111827">3:00 PM</text>
  <circle cx="390" cy="340" r="15" fill="#FCD34D"/>
  <text x="350" y="365" font-family="Arial" font-size="14" fill="#6B7280">33°C</text>
  
  <rect x="460" y="290" width="120" height="80" rx="4" fill="#F9FAFB"/>
  <text x="480" y="315" font-family="Arial" font-size="14" fill="#111827">6:00 PM</text>
  <path d="M520 330 Q530 320 540 330 Q550 340 560 330" stroke="#60A5FA" stroke-width="2"/>
  <text x="480" y="365" font-family="Arial" font-size="14" fill="#6B7280">29°C</text>
  
  <rect x="590" y="290" width="120" height="80" rx="4" fill="#F9FAFB"/>
  <text x="610" y="315" font-family="Arial" font-size="14" fill="#111827">9:00 PM</text>
  <path d="M650 330 Q660 320 670 330 Q680 340 690 330" stroke="#60A5FA" stroke-width="2"/>
  <text x="610" y="365" font-family="Arial" font-size="14" fill="#6B7280">27°C</text>
  
  <!-- Recommendations -->
  <rect x="70" y="390" width="660" height="60" rx="4" fill="#EEF2FF"/>
  <text x="90" y="425" font-family="Arial" font-size="14" fill="#4F46E5">
    💡 Tip: Perfect weather for outdoor activities in the morning. Consider indoor activities in the evening.
  </text>
</svg> 